[Header]
FileType HTR
DataType HTRS
FileVersion 1
NumSegments 64
NumFrames 3
DataFrameRate 30
EulerRotationOrder ZYX
CalibrationUnits mm
RotationUnits Degrees
GlobalAxisofGravity Y
BoneLengthAxis Y
ScaleFactor 1.0
[SegmentNames&Hierarchy]
Hips	GLOBAL
Spine	Hips
Spine1	Spine
Spine2	Spine1
Neck	Spine2
Head	Neck
LeftEye	Head
RightEye	Head
LeftShoulder	Spine2
LeftArm	LeftShoulder
LeftForeArm	LeftArm
LeftHand	LeftForeArm
LeftHandThumb1	LeftHand
LeftHandThumb2	LeftHandThumb1
LeftHandThumb3	LeftHandThumb2
LeftHandThumb4	LeftHandThumb3
LeftHandIndex1	LeftHand
LeftHandIndex2	LeftHandIndex1
LeftHandIndex3	LeftHandIndex2
LeftHandIndex4	LeftHandIndex3
LeftHandMiddle1	LeftHand
LeftHandMiddle2	LeftHandMiddle1
LeftHandMiddle3	LeftHandMiddle2
LeftHandMiddle4	LeftHandMiddle3
LeftHandRing1	LeftHand
LeftHandRing2	LeftHandRing1
LeftHandRing3	LeftHandRing2
LeftHandRing4	LeftHandRing3
LeftHandPinky1	LeftHand
LeftHandPinky2	LeftHandPinky1
LeftHandPinky3	LeftHandPinky2
LeftHandPinky4	LeftHandPinky3
RightShoulder	Spine2
RightArm	RightShoulder
RightForeArm	RightArm
RightHand	RightForeArm
RightHandPinky1	RightHand
RightHandPinky2	RightHandPinky1
RightHandPinky3	RightHandPinky2
RightHandPinky4	RightHandPinky3
RightHandRing1	RightHand
RightHandRing2	RightHandRing1
RightHandRing3	RightHandRing2
RightHandRing4	RightHandRing3
RightHandMiddle1	RightHand
RightHandMiddle2	RightHandMiddle1
RightHandMiddle3	RightHandMiddle2
RightHandMiddle4	RightHandMiddle3
RightHandIndex1	RightHand
RightHandIndex2	RightHandIndex1
RightHandIndex3	RightHandIndex2
RightHandIndex4	RightHandIndex3
RightHandThumb1	RightHand
RightHandThumb2	RightHandThumb1
RightHandThumb3	RightHandThumb2
RightHandThumb4	RightHandThumb3
LeftUpLeg	Hips
LeftLeg	LeftUpLeg
LeftFoot	LeftLeg
LeftToeBase	LeftFoot
RightUpLeg	Hips
RightLeg	RightUpLeg
RightFoot	RightLeg
RightToeBase	RightFoot
[BasePosition]
Hips	0	0	0	0	0	0	1
Spine	0	0	0	0	0	0	1
Spine1	0	0	0	0	0	0	1
Spine2	0	0	0	0	0	0	1
Neck	0	0	0	0	0	0	1
Head	0	0	0	0	0	0	1
LeftEye	0	0	0	0	0	0	1
RightEye	0	0	0	0	0	0	1
LeftShoulder	0	0	0	0	0	0	1
LeftArm	0	0	0	0	0	0	1
LeftForeArm	0	0	0	0	0	0	1
LeftHand	0	0	0	0	0	0	1
LeftHandThumb1	0	0	0	0	0	0	1
LeftHandThumb2	0	0	0	0	0	0	1
LeftHandThumb3	0	0	0	0	0	0	1
LeftHandThumb4	0	0	0	0	0	0	1
LeftHandIndex1	0	0	0	0	0	0	1
LeftHandIndex2	0	0	0	0	0	0	1
LeftHandIndex3	0	0	0	0	0	0	1
LeftHandIndex4	0	0	0	0	0	0	1
LeftHandMiddle1	0	0	0	0	0	0	1
LeftHandMiddle2	0	0	0	0	0	0	1
LeftHandMiddle3	0	0	0	0	0	0	1
LeftHandMiddle4	0	0	0	0	0	0	1
LeftHandRing1	0	0	0	0	0	0	1
LeftHandRing2	0	0	0	0	0	0	1
LeftHandRing3	0	0	0	0	0	0	1
LeftHandRing4	0	0	0	0	0	0	1
LeftHandPinky1	0	0	0	0	0	0	1
LeftHandPinky2	0	0	0	0	0	0	1
LeftHandPinky3	0	0	0	0	0	0	1
LeftHandPinky4	0	0	0	0	0	0	1
RightShoulder	0	0	0	0	0	0	1
RightArm	0	0	0	0	0	0	1
RightForeArm	0	0	0	0	0	0	1
RightHand	0	0	0	0	0	0	1
RightHandPinky1	0	0	0	0	0	0	1
RightHandPinky2	0	0	0	0	0	0	1
RightHandPinky3	0	0	0	0	0	0	1
RightHandPinky4	0	0	0	0	0	0	1
RightHandRing1	0	0	0	0	0	0	1
RightHandRing2	0	0	0	0	0	0	1
RightHandRing3	0	0	0	0	0	0	1
RightHandRing4	0	0	0	0	0	0	1
RightHandMiddle1	0	0	0	0	0	0	1
RightHandMiddle2	0	0	0	0	0	0	1
RightHandMiddle3	0	0	0	0	0	0	1
RightHandMiddle4	0	0	0	0	0	0	1
RightHandIndex1	0	0	0	0	0	0	1
RightHandIndex2	0	0	0	0	0	0	1
RightHandIndex3	0	0	0	0	0	0	1
RightHandIndex4	0	0	0	0	0	0	1
RightHandThumb1	0	0	0	0	0	0	1
RightHandThumb2	0	0	0	0	0	0	1
RightHandThumb3	0	0	0	0	0	0	1
RightHandThumb4	0	0	0	0	0	0	1
LeftUpLeg	0	0	0	0	0	0	1
LeftLeg	0	0	0	0	0	0	1
LeftFoot	0	0	0	0	0	0	1
LeftToeBase	0	0	0	0	0	0	1
RightUpLeg	0	0	0	0	0	0	1
RightLeg	0	0	0	0	0	0	1
RightFoot	0	0	0	0	0	0	1
RightToeBase	0	0	0	0	0	0	1
[Hips]
6	81.26372528	1023.20282	-16.92139244	-2.21327281	-4.275279045	-3.53307128	1.0
7	93.59529114	1022.351318	-21.0400753	-1.860622644	-6.503777504	-3.636202812	1.0
8	103.0675812	1020.50708	-24.34051323	-1.572780967	-8.924922943	-3.700743675	1.0
[Spine]
6	0	101.8159943	1.315000057	3.828825235	0.3835809231	3.161053658	1.0
7	0	101.8159943	1.315000057	3.728569031	0.1054330245	3.366798639	1.0
8	0	101.8159943	1.315000057	3.542910337	-0.08426086605	3.374729395	1.0
[Spine1]
6	0	100.8349991	-10.00800037	1.591532946	-0.5413059592	0.6911638975	1.0
7	0	100.8349991	-10.00800037	1.522909403	-0.7877457142	0.3557757437	1.0
8	0	100.8349991	-10.00800037	1.377141356	-0.966191113	-0.03523211554	1.0
[Spine2]
6	0	91	-13.73399925	1.544103861	-0.4633092284	1.613291979	1.0
7	0	91	-13.73399925	1.465636373	-0.6813502908	1.615553021	1.0
8	0	91	-13.73399925	1.309225559	-0.8262472749	1.588663578	1.0
[Neck]
6	0	166.7169952	-25.16200066	7.133558273	-7.369012356	2.247132778	1.0
7	0	166.7169952	-25.16200066	7.541576385	-8.564092636	2.30967021	1.0
8	0	166.7169952	-25.16200066	7.772171497	-9.224234581	2.310794115	1.0
[Head]
6	0	96.17900085	16.84999847	-5.10389328	-16.21024513	5.693261147	1.0
7	0	96.17900085	16.84999847	-3.893740177	-19.51147652	6.407824516	1.0
8	0	96.17900085	16.84999847	-3.145172596	-21.79881668	7.035190105	1.0
[LeftEye]
6	30.6760006	64.09500122	92.83599854	0	0	0	1.0
7	30.6760006	64.09500122	92.83599854	0	0	0	1.0
8	30.6760006	64.09500122	92.83599854	0	0	0	1.0
[RightEye]
6	-30.6760006	64.09500122	92.83499908	0	0	0	1.0
7	-30.6760006	64.09500122	92.83499908	0	0	0	1.0
8	-30.6760006	64.09500122	92.83499908	0	0	0	1.0
[LeftShoulder]
6	45.70400238	109.4599991	-26.28000069	4.835772038	-16.70777893	-12.43382359	1.0
7	45.70400238	109.4599991	-26.28000069	4.828224182	-16.66029358	-12.47771931	1.0
8	45.70400238	109.4599991	-26.28000069	4.814795494	-16.58063889	-12.54426003	1.0
[LeftArm]
6	105.923996	-5.24600029	-22.32099915	19.21889114	0.4997420907	-67.21613312	1.0
7	105.923996	-5.24600029	-22.32099915	19.05189323	1.245752096	-66.26842499	1.0
8	105.923996	-5.24600029	-22.32099915	18.84826851	1.887265205	-65.41404724	1.0
[LeftForeArm]
6	278.414978	-0.0009999999311	0	-5.388569207e-06	-3.941050529	-0.0001982597169	1.0
7	278.414978	-0.0009999999311	0	-3.390602217e-07	-4.493976116	-0.0002026599832	1.0
8	278.414978	-0.0009999999311	0	-5.615093414e-06	-5.177901745	-0.0002180332085	1.0
[LeftHand]
6	283.2879944	0	0	-35.35990906	-1.064801097	-3.702188492	1.0
7	283.2879944	0	0	-35.44423676	0.4014902413	-3.356073856	1.0
8	283.2879944	0	0	-35.00597382	1.787585258	-2.860378504	1.0
[LeftHandThumb1]
6	24.6609993	-15.75	26.8239994	-0.4889863729	2.201392412	4.818544865	1.0
7	24.6609993	-15.75	26.8239994	-0.4889863729	2.201392412	4.818544865	1.0
8	24.6609993	-15.75	26.8239994	-0.4889863729	2.201392412	4.818544865	1.0
[LeftHandThumb2]
6	32.29800034	-18.64699936	18.64699936	20.09246254	20.23517036	23.23846436	1.0
7	32.29800034	-18.64699936	18.64699936	20.05771065	20.17256355	23.21439362	1.0
8	32.29800034	-18.64699936	18.64699936	19.93869209	20.00904655	23.14491081	1.0
[LeftHandThumb3]
6	26.52600098	-15.31499958	15.31499958	-13.15083599	5.539678574	7.973287106	1.0
7	26.52600098	-15.31499958	15.31499958	-13.15480804	5.529860497	7.972859383	1.0
8	26.52600098	-15.31499958	15.31499958	-13.15460968	5.530349255	7.972885132	1.0
[LeftHandThumb4]
6	19.54599953	-11.28499985	11.28499985	0	0	0	1.0
7	19.54599953	-11.28499985	11.28499985	0	0	0	1.0
8	19.54599953	-11.28499985	11.28499985	0	0	0	1.0
[LeftHandIndex1]
6	91.09299469	-5.170999527	22.60099792	0.1168701276	-0.9558695555	-7.904597759	1.0
7	91.09299469	-5.170999527	22.60099792	0.1039067134	-0.9687427878	-7.964759827	1.0
8	91.09299469	-5.170999527	22.60099792	0.07342490554	-0.9907470345	-8.133547783	1.0
[LeftHandIndex2]
6	36.76399994	0	0	-0.26696527	1.746015549	-17.3850975	1.0
7	36.76399994	0	0	-0.2669759989	1.746056437	-17.38549614	1.0
8	36.76399994	0	0	-0.2673866153	1.747360945	-17.39892006	1.0
[LeftHandIndex3]
6	28.83100128	0	0	-0.05755316094	0.8182089329	-8.046973228	1.0
7	28.83100128	0	0	-0.05755784363	0.8182524443	-8.047381401	1.0
8	28.83100128	0	0	-0.05774894357	0.8196017146	-8.060788155	1.0
[LeftHandIndex4]
6	23.92700005	0	0	0	0	0	1.0
7	23.92700005	0	0	0	0	0	1.0
8	23.92700005	0	0	0	0	0	1.0
[LeftHandMiddle1]
6	95.33399963	0	0	-0.8093341589	2.610575199	-15.93812656	1.0
7	95.33399963	0	0	-0.8162556887	2.616296053	-16.0400753	1.0
8	95.33399963	0	0	-0.8237358928	2.615068674	-16.15026855	1.0
[LeftHandMiddle2]
6	36.98199844	0	0	-0.2687784731	1.751795292	-17.44456863	1.0
7	36.98199844	0	0	-0.2695838213	1.754353404	-17.47089005	1.0
8	36.98199844	0	0	-0.2705691457	1.757478476	-17.50301361	1.0
[LeftHandMiddle3]
6	29.50900078	0	0	-0.3004392087	1.849482894	-18.45209694	1.0
7	29.50900078	0	0	-0.301286757	1.852027893	-18.47844887	1.0
8	29.50900078	0	0	-0.3023299575	1.855142236	-18.51062584	1.0
[LeftHandMiddle4]
6	28.3390007	0	0	0	0	0	1.0
7	28.3390007	0	0	0	0	0	1.0
8	28.3390007	0	0	0	0	0	1.0
[LeftHandRing1]
6	91.04499817	-0.4390000105	-18.65100098	-1.208241105	3.359299183	-21.47554588	1.0
7	91.04499817	-0.4390000105	-18.65100098	-1.21129775	3.338883162	-21.51615524	1.0
8	91.04499817	-0.4390000105	-18.65100098	-1.22288835	3.286242723	-21.6696167	1.0
[LeftHandRing2]
6	31.54000092	0	0	-0.3839014173	2.082848787	-20.88426208	1.0
7	31.54000092	0	0	-0.3851800561	2.086203098	-20.91949272	1.0
8	31.54000092	0	0	-0.3851136863	2.086027622	-20.91766357	1.0
[LeftHandRing3]
6	29.37700081	0	0	-0.2809170485	1.789948106	-17.83741188	1.0
7	29.37700081	0	0	-0.2820213735	1.793368459	-17.87261963	1.0
8	29.37700081	0	0	-0.2819647193	1.793201327	-17.87088776	1.0
[LeftHandRing4]
6	26.47500038	0	0	0	0	0	1.0
7	26.47500038	0	0	0	0	0	1.0
8	26.47500038	0	0	0	0	0	1.0
[LeftHandPinky1]
6	80.77799988	-4.887000084	-38.06099701	-1.813267589	4.951043129	-27.52959442	1.0
7	80.77799988	-4.887000084	-38.06099701	-1.836006761	4.871460438	-27.62220192	1.0
8	80.77799988	-4.887000084	-38.06099701	-1.876033068	4.742344856	-27.80437279	1.0
[LeftHandPinky2]
6	36	0	0	-0.2730634809	1.765367866	-17.58414459	1.0
7	36	0	0	-0.2727643847	1.76441884	-17.57443047	1.0
8	36	0	0	-0.2732012868	1.765794754	-17.58861542	1.0
[LeftHandPinky3]
6	21.14200211	0	0	-0.2457597852	1.676809072	-16.67502022	1.0
7	21.14200211	0	0	-0.2454168499	1.675663233	-16.66333199	1.0
8	21.14200211	0	0	-0.2457366586	1.676744103	-16.67435074	1.0
[LeftHandPinky4]
6	19.75699997	0	0	0	0	0	1.0
7	19.75699997	0	0	0	0	0	1.0
8	19.75699997	0	0	0	0	0	1.0
[RightShoulder]
6	-45.70000076	109.4620056	-26.28000069	5.209616184	14.55425739	15.7016325	1.0
7	-45.70000076	109.4620056	-26.28000069	5.146990299	14.38337231	15.48988628	1.0
8	-45.70000076	109.4620056	-26.28000069	5.089109421	14.21937752	15.30912304	1.0
[RightArm]
6	-105.9280014	-5.248000145	-22.32099915	5.554490566	1.187031269	60.23051071	1.0
7	-105.9280014	-5.248000145	-22.32099915	0.6236585379	-1.065779209	60.40545654	1.0
8	-105.9280014	-5.248000145	-22.32099915	-4.212451458	-3.72614336	60.89442444	1.0
[RightForeArm]
6	-278.414978	0	0	7.932109838e-06	14.08253193	1.542997416e-05	1.0
7	-278.414978	0	0	2.974456265e-06	16.7497921	1.782120307e-05	1.0
8	-278.414978	0	0	-2.306752549e-06	19.50494766	3.718144512e-07	1.0
[RightHand]
6	-283.2879944	0	0.0009999999311	3.907984495	11.28693676	-0.8590151668	1.0
7	-283.2879944	0	0.0009999999311	8.585866928	13.37136841	-1.254904389	1.0
8	-283.2879944	0	0.0009999999311	12.94225121	15.44552326	-0.9539025426	1.0
[RightHandPinky1]
6	-80.76699829	-4.885000229	-38.06000137	-1.524355531	-5.125189304	27.12929916	1.0
7	-80.76699829	-4.885000229	-38.06000137	-1.524354696	-5.18090868	27.18307114	1.0
8	-80.76699829	-4.885000229	-38.06000137	-1.522149563	-5.266421318	27.18621063	1.0
[RightHandPinky2]
6	-36	0	0.0009999999311	-0.2131138444	-1.389991164	17.45227814	1.0
7	-36	0	0.0009999999311	-0.2130522132	-1.389797211	17.44979095	1.0
8	-36	0	0.0009999999311	-0.2132952958	-1.390559554	17.45971298	1.0
[RightHandPinky3]
6	-21.14200211	0	0	-0.1922752112	-1.321823359	16.55217552	1.0
7	-21.14200211	0	0	-0.192223534	-1.321659803	16.54998779	1.0
8	-21.14200211	0	0	-0.192465052	-1.322466731	16.56039238	1.0
[RightHandPinky4]
6	-19.75699997	0	0	0	0	0	1.0
7	-19.75699997	0	0	0	0	0	1.0
8	-19.75699997	0	0	0	0	0	1.0
[RightHandRing1]
6	-91.03599548	-0.4390000105	-18.65100098	-1.110194206	-3.189448833	21.45337868	1.0
7	-91.03599548	-0.4390000105	-18.65100098	-1.120199203	-3.209066868	21.60250282	1.0
8	-91.03599548	-0.4390000105	-18.65100098	-1.126215458	-3.218486309	21.6922245	1.0
[RightHandRing2]
6	-31.54000092	0	0	-0.3090066612	-1.664766312	21.02897263	1.0
7	-31.54000092	0	0	-0.3088948727	-1.664486527	21.0252552	1.0
8	-31.54000092	0	0	-0.308868736	-1.664418101	21.02428627	1.0
[RightHandRing3]
6	-29.37700081	0	0	-0.2265025824	-1.431920886	17.97639084	1.0
7	-29.37700081	0	0	-0.2264072299	-1.431632638	17.97262192	1.0
8	-29.37700081	0	0	-0.2263803482	-1.431549788	17.97163582	1.0
[RightHandRing4]
6	-26.47500038	0	0	0	0	0	1.0
7	-26.47500038	0	0	0	0	0	1.0
8	-26.47500038	0	0	0	0	0	1.0
[RightHandMiddle1]
6	-95.32500458	0	0	-0.7864140868	-2.478352547	16.40962982	1.0
7	-95.32500458	0	0	-0.7921285629	-2.548705339	16.50182724	1.0
8	-95.32500458	0	0	-0.8020001054	-2.670763969	16.66035461	1.0
[RightHandMiddle2]
6	-36.98199844	0	0	-0.216659829	-1.401252627	17.57845688	1.0
7	-36.98199844	0	0	-0.2163286954	-1.400186777	17.56473351	1.0
8	-36.98199844	0	0	-0.2160840482	-1.399430275	17.55497932	1.0
[RightHandMiddle3]
6	-29.50900078	0	0	-0.2420029938	-1.48083961	18.58665466	1.0
7	-29.50900078	0	0	-0.2416441739	-1.479766607	18.57271004	1.0
8	-29.50900078	0	0	-0.2413875163	-1.478999257	18.56269836	1.0
[RightHandMiddle4]
6	-28.3390007	0	0.0009999999311	0	0	0	1.0
7	-28.3390007	0	0.0009999999311	0	0	0	1.0
8	-28.3390007	0	0.0009999999311	0	0	0	1.0
[RightHandIndex1]
6	-91.08300018	-5.167999744	22.60099792	0.231085673	0.9091698527	8.146251678	1.0
7	-91.08300018	-5.167999744	22.60099792	0.2429324985	0.860153079	8.267908096	1.0
8	-91.08300018	-5.167999744	22.60099792	0.2601419091	0.7939965725	8.424592972	1.0
[RightHandIndex2]
6	-36.76399994	0	0	-0.2130461633	-1.38978374	17.42990112	1.0
7	-36.76399994	0	0	-0.2128704041	-1.389195442	17.42251587	1.0
8	-36.76399994	0	0	-0.2128046155	-1.389011025	17.42009163	1.0
[RightHandIndex3]
6	-28.83100128	0	0	-0.04601940885	-0.6518976092	8.075791359	1.0
7	-28.83100128	0	0	-0.0459424071	-0.6513082981	8.068392754	1.0
8	-28.83100128	0	0	-0.0459128432	-0.6511141062	8.065979958	1.0
[RightHandIndex4]
6	-23.92700005	0	0	0	0	0	1.0
7	-23.92700005	0	0	0	0	0	1.0
8	-23.92700005	0	0	0	0	0	1.0
[RightHandThumb1]
6	-24.64799881	-15.72700024	26.82600021	-1.658462644	-0.289145112	-4.221315384	1.0
7	-24.64799881	-15.72700024	26.82600021	-1.658462644	-0.289145112	-4.221315384	1.0
8	-24.64799881	-15.72700024	26.82600021	-1.658462644	-0.289145112	-4.221315384	1.0
[RightHandThumb2]
6	-32.29800034	-18.64699936	18.64699936	23.59687614	-24.17093468	-24.87988091	1.0
7	-32.29800034	-18.64699936	18.64699936	23.54615211	-24.04770088	-24.81767845	1.0
8	-32.29800034	-18.64699936	18.64699936	23.44636917	-23.81113815	-24.69603729	1.0
[RightHandThumb3]
6	-26.52600098	-15.31399918	15.31399918	-13.80788994	-5.337028027	-12.03645039	1.0
7	-26.52600098	-15.31399918	15.31399918	-13.59597397	-5.136221409	-12.13798714	1.0
8	-26.52600098	-15.31399918	15.31399918	-13.32114601	-4.873744011	-12.26505566	1.0
[RightHandThumb4]
6	-19.54599953	-11.28499985	11.28499985	0	0	0	1.0
7	-19.54599953	-11.28499985	11.28499985	0	0	0	1.0
8	-19.54599953	-11.28499985	11.28499985	0	0	0	1.0
[LeftUpLeg]
6	82.07800293	-67.51699829	-15.99599934	-14.92271042	11.95433521	2.814921379	1.0
7	82.07800293	-67.51699829	-15.99599934	-15.55859852	11.9288168	2.007444143	1.0
8	82.07800293	-67.51699829	-15.99599934	-16.27318382	11.89601135	1.412307024	1.0
[LeftLeg]
6	0	-443.7049866	2.845999956	22.50324821	5.867708206	7.697779655	1.0
7	0	-443.7049866	2.845999956	23.03256798	5.149428844	7.785051823	1.0
8	0	-443.7049866	2.845999956	23.99866486	4.631881237	7.967521191	1.0
[LeftFoot]
6	0	-444.2789917	-29.8219986	-4.616962433	9.608335495	-5.057979584	1.0
7	0	-444.2789917	-29.8219986	-5.097734928	12.54386044	-4.846354485	1.0
8	0	-444.2789917	-29.8219986	-5.773791313	15.38134956	-4.96902895	1.0
[LeftToeBase]
6	0	-87.28699493	107.1060028	-4.928524971	-6.036373179e-06	3.88394966e-07	1.0
7	0	-87.28699493	107.1060028	-4.928524017	-7.474656286e-06	6.049519357e-07	1.0
8	0	-87.28699493	107.1060028	-4.928523064	-7.707266377e-06	5.190383376e-07	1.0
[RightUpLeg]
6	-82.07800293	-67.51699829	-15.99599934	-9.869517326	-3.360470533	-4.624290943	1.0
7	-82.07800293	-67.51699829	-15.99599934	-9.197932243	-8.17438221	-4.6894207	1.0
8	-82.07800293	-67.51699829	-15.99599934	-9.005537033	-10.94580173	-4.169492722	1.0
[RightLeg]
6	0	-443.7049866	2.861999989	24.7388401	-11.56733704	1.20020926	1.0
7	0	-443.7049866	2.861999989	24.98666573	-10.08428383	5.410408497	1.0
8	0	-443.7049866	2.861999989	27.16136742	-12.15275192	4.954378605	1.0
[RightFoot]
6	0	-444.2770081	-29.83799934	-3.436777592	-20.99268532	2.045339108	1.0
7	0	-444.2770081	-29.83799934	-4.310483932	-26.47637367	0.04618296772	1.0
8	0	-444.2770081	-29.83799934	-6.376426697	-29.23907471	2.501457214	1.0
[RightToeBase]
6	0	-87.28699493	107.1060028	-7.844200134	1.369564507e-05	-3.790646815e-06	1.0
7	0	-87.28699493	107.1060028	-9.041872025	-1.28058864e-05	2.938374564e-06	1.0
8	0	-87.28699493	107.1060028	-10.20954609	7.198668754e-06	-1.981100922e-06	1.0
[EndOfFile]
